<?xml version="1.0" encoding="UTF-8"?><svg id="a" xmlns="http://www.w3.org/2000/svg" width="800" height="800" viewBox="0 0 800 800"><rect width="800" height="800" fill="#1e2423"/><circle cx="399.58" cy="399.58" r="315.13" fill="#262d2b"/><path d="M35.93,401.59v-121.57h73.36v15.77h-54.93v35.78h48.55v15.95h-48.55v38.1h55.64v15.95H35.93Z" fill="#c39623"/><path d="M127.71,401.59v-121.56h45.01c8.74,0,15.68,1.52,20.82,4.52,5.14,3.01,8.8,7.18,10.99,12.49,2.18,5.32,3.28,11.34,3.28,18.07,0,8.15-1.45,15.21-4.34,21.17-2.9,5.97-7,10.31-12.32,13.02l21.44,52.27h-19.49l-19.31-47.31h-27.64v47.31h-18.43ZM146.14,338.51h24.81c6.38,0,11.01-1.98,13.91-5.94,2.89-3.96,4.34-9.48,4.34-16.57,0-4.37-.59-8.06-1.77-11.08-1.18-3.01-3.16-5.29-5.94-6.82-2.78-1.53-6.59-2.3-11.43-2.3h-23.92v42.7Z" fill="#c39623"/><path d="M227.47,401.59v-121.56h44.12c7.09,0,13.02,1.15,17.81,3.46,4.78,2.3,8.42,5.64,10.9,10.01,2.48,4.37,3.72,9.51,3.72,15.42,0,4.96-.77,9.39-2.3,13.29-1.54,3.9-3.63,7.15-6.29,9.75-2.66,2.6-5.7,4.55-9.12,5.85v.71c3.78,1.06,7.2,2.75,10.28,5.05,3.07,2.3,5.49,5.43,7.27,9.39,1.77,3.96,2.66,8.95,2.66,14.97,0,8.03-1.54,14.53-4.61,19.49-3.07,4.96-7.5,8.57-13.29,10.81-5.79,2.25-12.76,3.37-20.91,3.37h-40.22ZM245.72,331.96h22.86c4.01,0,7.23-.8,9.66-2.39,2.42-1.59,4.25-3.84,5.49-6.73,1.24-2.89,1.86-6.17,1.86-9.83,0-5.55-1.39-9.8-4.16-12.76-2.78-2.95-6.82-4.43-12.14-4.43h-23.57v36.15ZM245.72,385.65h24.28c6.26,0,10.81-1.53,13.64-4.61,2.84-3.07,4.25-7.91,4.25-14.53,0-4.01-.56-7.47-1.68-10.37-1.12-2.89-3.01-5.08-5.67-6.56-2.66-1.48-6.17-2.21-10.54-2.21h-24.28v38.27Z" fill="#c39623"/><path d="M357.71,403.72c-5.55,0-10.72-.59-15.5-1.77-4.78-1.18-8.95-3.16-12.49-5.94-3.54-2.77-6.32-6.53-8.33-11.25-2.01-4.72-3.01-10.63-3.01-17.72v-3.37h18.07v3.54c0,4.85.77,8.8,2.3,11.87,1.53,3.07,3.87,5.32,7,6.73,3.13,1.42,7,2.13,11.61,2.13,2.6,0,4.99-.23,7.18-.71,2.18-.47,4.13-1.21,5.85-2.21,1.71-1,3.19-2.24,4.43-3.72,1.24-1.48,2.18-3.25,2.83-5.32.65-2.07.97-4.4.97-7,0-3.66-.83-6.73-2.48-9.21-1.66-2.48-3.87-4.55-6.65-6.2-2.78-1.65-5.88-3.16-9.3-4.52-3.43-1.36-6.97-2.72-10.63-4.08-3.66-1.36-7.24-2.89-10.72-4.61-3.49-1.71-6.62-3.84-9.39-6.38-2.78-2.54-4.96-5.64-6.56-9.3-1.59-3.66-2.39-8.15-2.39-13.47,0-5.67.94-10.63,2.83-14.88,1.89-4.25,4.52-7.74,7.89-10.46,3.37-2.72,7.35-4.72,11.96-6.02,4.61-1.3,9.57-1.95,14.88-1.95s10.22.62,14.71,1.86c4.49,1.24,8.36,3.19,11.61,5.85,3.25,2.66,5.79,6.11,7.62,10.37,1.83,4.25,2.75,9.45,2.75,15.59v2.84h-17.9v-2.66c0-3.9-.68-7.18-2.04-9.83-1.36-2.66-3.4-4.7-6.11-6.11-2.72-1.42-6.14-2.13-10.28-2.13-3.9,0-7.3.53-10.19,1.59-2.9,1.06-5.14,2.78-6.73,5.14-1.59,2.36-2.39,5.38-2.39,9.04s.83,6.5,2.48,8.86c1.65,2.37,3.87,4.37,6.65,6.03,2.77,1.66,5.88,3.13,9.3,4.43,3.42,1.3,6.97,2.63,10.63,3.99,3.66,1.36,7.2,2.9,10.63,4.61,3.42,1.71,6.56,3.87,9.39,6.47,2.83,2.6,5.05,5.76,6.65,9.48,1.59,3.72,2.39,8.24,2.39,13.56,0,8.74-1.66,15.83-4.96,21.26-3.31,5.43-7.95,9.39-13.91,11.87-5.97,2.48-12.85,3.72-20.64,3.72Z" fill="#c39623"/><path d="M414.06,401.59v-121.56h18.43v105.43h45.01v16.12h-63.44Z" fill="#c39623"/><path d="M480.32,401.59l35.08-121.56h23.21l35.26,121.56h-19.31l-8.33-29.77h-38.98l-8.33,29.77h-18.61ZM511.16,356.06h31.01l-10.1-38.1c-.24-.94-.56-2.18-.97-3.72-.42-1.53-.86-3.25-1.33-5.14-.47-1.89-.92-3.75-1.33-5.58-.42-1.83-.8-3.51-1.15-5.05h-1.06c-.35,1.89-.86,4.08-1.51,6.56-.65,2.48-1.27,4.87-1.86,7.18-.59,2.3-1.12,4.23-1.59,5.76l-10.1,38.1Z" fill="#c39623"/><path d="M585.58,401.59v-121.56h17.54l38.63,72.47c.47.71,1,1.71,1.59,3.01.59,1.3,1.15,2.63,1.68,3.99.53,1.36.97,2.57,1.33,3.63h.89c0-2.01-.03-3.99-.09-5.94-.06-1.95-.09-3.63-.09-5.05v-72.12h17.72v121.56h-17.19l-38.98-73.36c-.59-1.3-1.36-3.04-2.3-5.23-.95-2.18-1.77-4.28-2.48-6.29h-.71v84.88h-17.54Z" fill="#c39623"/><path d="M687.46,401.59v-121.56h37.21c10.39,0,19.02,2.1,25.87,6.29,6.85,4.19,11.96,10.75,15.33,19.67,3.37,8.92,5.05,20.47,5.05,34.64s-1.68,25.58-5.05,34.55c-3.37,8.98-8.5,15.62-15.42,19.93-6.91,4.31-15.62,6.47-26.14,6.47h-36.86ZM705.89,385.65h17.01c4.61,0,8.71-.65,12.32-1.95,3.6-1.3,6.64-3.46,9.13-6.47,2.48-3.01,4.4-7.12,5.76-12.32,1.36-5.2,2.04-11.69,2.04-19.49v-8.15c0-7.8-.65-14.35-1.95-19.67-1.3-5.32-3.19-9.57-5.67-12.76s-5.55-5.49-9.21-6.91c-3.66-1.42-7.8-2.13-12.4-2.13h-17.01v89.84Z" fill="#c39623"/><path d="M98.56,619.44l38.4-218.05h87.28c31.31,0,55.44,6.88,72.37,20.63,16.93,13.76,25.39,35.13,25.39,64.11,0,4.66-.21,9.47-.63,14.44-.43,4.97-1.06,10-1.9,15.08-4.02,22.64-11.48,41.69-22.38,57.13-10.9,15.45-24.87,27.09-41.9,34.91-17.04,7.83-36.87,11.74-59.51,11.74h-97.12ZM163.31,575h32.37c8.89,0,16.93-1.27,24.12-3.81,7.19-2.54,13.49-6.24,18.89-11.11,5.4-4.87,9.84-10.84,13.33-17.93,3.49-7.09,5.98-15.08,7.46-23.96,1.27-6.35,2.17-11.37,2.7-15.08.53-3.7.9-6.71,1.11-9.05.21-2.33.32-4.33.32-6.03,0-9.31-1.64-17.08-4.92-23.33-3.28-6.24-8.2-10.95-14.76-14.12-6.56-3.17-14.81-4.76-24.76-4.76h-33.33l-22.54,129.18Z" fill="#f2f0f5"/><path d="M293.44,619.44l38.72-218.05h180.28l-7.94,44.44h-123.15l-7.3,40.94h107.6l-7.62,43.48h-107.6l-7.94,44.75h125.37l-7.94,44.44h-182.5Z" fill="#f2f0f5"/><path d="M542.91,619.44l-39.99-218.05h58.72l16.82,111.72c.63,4.66,1.37,9.84,2.22,15.55.84,5.71,1.64,11.22,2.38,16.5.74,5.29,1.32,9.95,1.75,13.96h1.9c2.33-4.87,4.87-10.1,7.62-15.71,2.75-5.6,5.5-11.16,8.25-16.66,2.75-5.5,5.18-10.47,7.3-14.92l55.23-110.45h60.31l-116.49,218.05h-66.02Z" fill="#f2f0f6"/><!-- https://github.com/erbsland-dev/skills --></svg>